<?xml version="1.0" encoding="utf-8"?>
<!-- Generator: Adobe Illustrator 23.0.3, SVG Export Plug-In . SVG Version: 6.00 Build 0)  -->
<svg version="1.1" id="图层_1" xmlns="http://www.w3.org/2000/svg" xmlns:xlink="http://www.w3.org/1999/xlink" x="0px" y="0px"
	 viewBox="0 0 1000 1000" style="enable-background:new 0 0 1000 1000;" xml:space="preserve">
<g>
	<g>
		<path d="M947.8,300.7c-0.2-14.3-0.3-20.1-0.4-26.9c-0.3-20.1-1.7-40.4-5.1-58.6c-3.8-19.8-8.8-37.8-17.9-55.8
			c-9.3-18.3-22-34-35.7-48.1c-14.1-13.7-29.9-26.4-48.1-35.7c-18-9.1-36-14.2-55.8-17.9c-18.2-3.4-38.5-4.7-58.6-5.1
			c-6.7-0.1-12.6-0.2-26.9-0.3c-13.7-0.1-24.8-0.2-33-0.2H333.5c-8.2,0-19.3,0.1-32.9,0.2c-14.3,0.2-20.1,0.3-26.9,0.3
			c-20.1,0.4-40.4,1.7-58.6,5.1c-19.8,3.8-37.8,8.8-55.8,17.9c-18.3,9.3-34,22-48.1,35.7c-13.7,14.1-26.4,29.9-35.7,48.1
			c-9.1,18-14.2,36-18,55.8c-3.4,18.2-4.7,38.5-5.1,58.6c-0.1,4.5-0.1,8.7-0.2,15.3L52,682.9c0,5,0.1,10.4,0.1,16.4
			c0.2,14.3,0.3,20.1,0.3,26.9c0.4,20.1,1.7,40.4,5.1,58.6c1.7,8.7,3.5,17,5.9,25c3.1,10.4,6.9,20.6,12.1,30.7
			c9.3,18.3,22,34,35.7,48.1c14.1,13.7,29.9,26.4,48.1,35.7c18,9.1,36,14.2,55.8,17.9c18.2,3.4,38.5,4.7,58.6,5.1
			c6.7,0.1,12.6,0.2,26.9,0.4c13.6,0.1,24.7,0.2,32.9,0.2h187.3V600.5H408.2v-130H520V349.6c0-92.8,71.8-159.4,164.5-159.4
			l120.1,2.6v124.8h-91.7c-26.5,0-48.1,29.3-48.1,55.9v97h135.3l-19.3,130H660.5V948h5.8c8.2,0,19.3-0.1,32.9-0.2
			c11.3-0.1,17.3-0.2,22.7-0.2c1.4,0,2.8,0,4.3-0.1c20.1-0.3,40.4-1.7,58.6-5.1c19.8-3.8,37.8-8.7,55.8-17.9
			c18.3-9.3,34-22,48.1-35.7c13.7-14.1,26.4-29.9,35.7-48.1c9.1-18,14.2-36,17.9-55.8c3.4-18.2,4.7-38.5,5.1-58.6
			c0.1-6.7,0.2-12.6,0.4-26.9c0.1-13.6,0.2-24.7,0.2-32.9V324.2C948,317.5,947.9,309.6,947.8,300.7z"/>
	</g>
</g>
</svg>
