<?xml version="1.0" encoding="utf-8"?>
<!-- Generator: Adobe Illustrator 23.0.3, SVG Export Plug-In . SVG Version: 6.00 Build 0)  -->
<svg version="1.1" id="图层_1" xmlns="http://www.w3.org/2000/svg" xmlns:xlink="http://www.w3.org/1999/xlink" x="0px" y="0px"
	 viewBox="0 0 1000 1000" style="enable-background:new 0 0 1000 1000;" xml:space="preserve">
<g>
	<g>
		<path d="M500,350.7c-82.4,0-149.3,67-149.3,149.3c0,82.4,67,149.3,149.3,149.3c82.4,0,149.3-67,149.3-149.3
			C649.3,417.6,582.4,350.7,500,350.7z M686.7,52H313.3C169.6,52,52,169.6,52,313.3v373.3C52,830.4,169.6,948,313.3,948h373.3
			C830.4,948,948,830.4,948,686.7V313.3C948,169.6,830.4,52,686.7,52z M500,724c-123.7,0-224-100.3-224-224
			c0-123.7,100.3-224,224-224s224,100.3,224,224C724,623.7,623.7,724,500,724z M742.7,313.3c-31,0-56-25-56-56c0-31,25-56,56-56
			c30.8,0,56,25,56,56C798.7,288.4,773.5,313.3,742.7,313.3z"/>
	</g>
</g>
</svg>
