<?xml version="1.0" encoding="utf-8"?>
<!-- Generator: Adobe Illustrator 23.0.3, SVG Export Plug-In . SVG Version: 6.00 Build 0)  -->
<svg version="1.1" id="图层_1" xmlns="http://www.w3.org/2000/svg" xmlns:xlink="http://www.w3.org/1999/xlink" x="0px" y="0px"
	 viewBox="0 0 1000 1000" style="enable-background:new 0 0 1000 1000;" xml:space="preserve">
<g>
	<g>
		<path d="M500,52c-137.2,0-248.9,117.7-248.9,262.3c0,103.2,56.8,192.6,139.2,235.4c-57.6,18.6-110.5,51.9-154.3,98.1
			c-70.5,74.4-109.3,173.2-109.3,278.3c0,12,9.3,21.9,20.8,21.9c11.5,0,20.8-9.8,20.8-21.9c0-93.4,34.5-181.3,97.2-247.3
			c60.4-63.7,140-99.8,225.2-102.3c3.1,0.1,6.4-0.3,9.5-0.3c137.3,0,248.9-117.2,248.9-261.8C748.8,169.7,637.2,52,500,52z
			 M503.4,533c-1.1-0.2-9.7-0.3-12.8-0.2c-110-5.3-197.9-101.1-197.9-218.4c0-120.6,93-218.6,207.4-218.6s207.5,98.1,207.5,218.6
			C707.4,433.7,616.1,531.1,503.4,533z M763.9,647.8c-8.1-8.6-21.2-8.6-29.3,0c-8.1,8.6-8.1,22.4,0,31
			c62.7,66.1,97.2,153.9,97.2,247.4c0,12,9.3,21.8,20.8,21.8s20.8-9.8,20.8-21.8C873.3,821.1,834.5,722.2,763.9,647.8z"/>
	</g>
</g>
</svg>
