<?xml version="1.0" encoding="utf-8"?>
<!-- Generator: Adobe Illustrator 23.0.3, SVG Export Plug-In . SVG Version: 6.00 Build 0)  -->
<svg version="1.1" id="图层_1" xmlns="http://www.w3.org/2000/svg" xmlns:xlink="http://www.w3.org/1999/xlink" x="0px" y="0px"
	 viewBox="0 0 1000 1000" style="enable-background:new 0 0 1000 1000;" xml:space="preserve">
<path d="M940.6,905.6l-140.9-141c18.6-19,61.6-76.8,84.6-143.7c17.3-50.5,23.7-99.4,23.7-140.9C908.1,243.6,716.5,52,480,52
	S52,243.6,52,480.1c0,236.4,191.6,428.1,428,428.1c28.4,0,90.7-3.5,151.8-27.7c12.3-4.9,18.9-18.5,14.6-31.2l0,0
	C642,836,627,828.3,614.1,834c-40.6,18.2-108.8,24.4-134.1,24.4c-208.9,0-378.3-169.4-378.3-378.3c0-209,169.3-378.3,378.3-378.3
	c208.9,0,378.3,169.3,378.3,378.3c0,78.8-24.2,152.1-65.4,212.7c-1.6,2.3-19.9,29.4-47.5,57c-7.4,7.4-6.9,23.9,2,32.8l158.1,158.1
	c9.7,9.7,25.5,9.7,35.2,0C950.5,931.1,950.4,915.3,940.6,905.6z"/>
</svg>
