<?xml version="1.0" encoding="utf-8"?>
<!-- Generator: Adobe Illustrator 23.0.3, SVG Export Plug-In . SVG Version: 6.00 Build 0)  -->
<svg version="1.1" id="图层_1" xmlns="http://www.w3.org/2000/svg" xmlns:xlink="http://www.w3.org/1999/xlink" x="0px" y="0px"
	 viewBox="0 0 1000 1000" style="enable-background:new 0 0 1000 1000;" xml:space="preserve">
<g>
	<g>
		<path d="M873.2,895.4l-43.6-557.5c-2.2-27.4-24.9-48.8-51.9-48.8H222.3c-26.5,0-49.7,21.9-51.8,48.8l-43.6,557.5
			c-1,13.1,3.3,25.7,12.1,35.4c9.9,10.9,24.6,17.2,40.4,17.2h641.5c15.7,0,30.4-6.3,40.3-17.4C869.9,920.8,874.2,908.3,873.2,895.4z
			 M820.8,899.8H179.2c-2.9,0-4.6-0.8-5.2-0.8c-0.1,0-0.2,0-0.2,0.1l43.6-557.4c0.2-2,2.8-4.5,4.9-4.5h555.4c2.4,0,4.7,2.1,4.9,4.5
			l43.9,556.1C826.3,898.3,824.4,899.8,820.8,899.8z M358.7,441.8c-26,0-47.1,21.6-47.1,48.2c0,27.3,22.1,49.2,48.9,48.2
			c24.4-1,44.3-21.3,45.2-46.3C406.8,464.4,385.4,441.8,358.7,441.8z M641.3,441.8c-26,0-47.1,21.6-47.1,48.2
			c0,27.3,22.1,49.2,48.9,48.2c24.4-1,44.3-21.3,45.2-46.3C689.4,464.4,667.9,441.8,641.3,441.8z M344.2,246.8
			c10.9,0.3,20.6-7.4,23.5-18.3c10.8-40.3,43.5-121,132.4-121c88.5,0,121.4,82.7,132.3,123.6c3,11.2,13.2,19.1,24.6,18.3
			c15.2-1,25.3-15.8,21.7-30.4C661.8,150.2,609.9,52,500,52c-109.7,0-161.6,96.5-178.6,164.3C317.7,231.3,328.4,246.4,344.2,246.8z"
			/>
	</g>
</g>
</svg>
