<?xml version="1.0" encoding="utf-8"?>
<!-- Generator: Adobe Illustrator 23.0.3, SVG Export Plug-In . SVG Version: 6.00 Build 0)  -->
<svg version="1.1" id="图层_1" xmlns="http://www.w3.org/2000/svg" xmlns:xlink="http://www.w3.org/1999/xlink" x="0px" y="0px"
	 viewBox="0 0 1000 1000" style="enable-background:new 0 0 1000 1000;" xml:space="preserve">
<path d="M898.7,101.3C865.8,68.4,826.3,52,780,52H220c-46.3,0-85.8,16.4-118.7,49.3C68.4,134.1,52,173.7,52,220v560
	c0,46.3,16.4,85.8,49.3,118.7C134.1,931.6,173.7,948,220,948h560c46.3,0,85.8-16.4,118.7-49.3C931.6,865.8,948,826.3,948,780V220
	C948,173.7,931.6,134.1,898.7,101.3z M798.6,333.2c-16.3,24.9-36.7,46.1-61.2,63.6c0.4,3.5,0.6,8.8,0.6,15.7
	c0,32.7-4.8,65.4-14.3,98.3c-9.5,32.9-24.1,64.4-43.7,94.5c-19.6,30.1-43.1,56.8-70.3,79.9c-27.2,23.1-59.9,41.6-98,55.4
	c-38.1,13.8-78.9,20.7-122.5,20.7c-67.7,0-130.3-18.3-187.8-54.9c9.3,1.2,19.1,1.8,29.2,1.8c56.4,0,107.2-17.5,152.3-52.5
	c-26.5-0.4-50.1-8.6-70.9-24.5c-20.8-15.9-35.3-36.2-43.4-60.7c10.1,1.5,17.7,2.3,22.7,2.3c8.6,0,18.5-1.5,29.8-4.7
	c-28.4-5.5-52.3-19.5-71.7-42.3c-19.4-22.8-29.2-48.7-29.2-77.9v-1.2c20.6,9.7,40.1,14.8,58.3,15.2c-35.4-23.7-53.1-57.7-53.1-102.1
	c0-21.8,5.6-42.4,16.9-61.8c30.7,37.7,68.1,67.9,112,90.4c43.9,22.6,91,35.2,141.1,37.9c-1.9-7.4-2.9-16.7-2.9-28
	c0-33.8,12-62.7,35.9-86.6c23.9-23.9,52.8-35.9,86.6-35.9c35.8,0,65.5,12.8,89.2,38.5c26.8-5.1,52.9-15,78.2-29.8
	c-9.7,29.9-27.8,52.7-54.3,68.2C753.3,349.5,776.9,342.9,798.6,333.2L798.6,333.2z"/>
</svg>
